<svg version="1.1" id="Layer_1" xmlns="http://www.w3.org/2000/svg" xmlns:xlink="http://www.w3.org/1999/xlink" x="0px" y="0px" width="100%px" viewBox="-30 -150 1024 1024" enable-background="new 0 0 1024 1024" xml:space="preserve" height="100px" transform="rotate(0) scale(1.5, 1.5)">
<path fill="#c9641c" opacity="1.000000" stroke="none" d="&#10;M512.261963,484.002594 &#10;&#9;C511.959381,492.820343 510.977051,501.114197 507.805023,508.858459 &#10;&#9;C506.203705,512.768005 506.477081,516.070740 507.757263,519.878662 &#10;&#9;C512.791992,534.854614 517.267029,550.032349 519.164917,565.751160 &#10;&#9;C521.369324,584.009277 520.702576,602.225891 516.947876,620.316345 &#10;&#9;C514.608215,631.589172 511.241241,642.538513 507.639832,653.441162 &#10;&#9;C506.617188,656.537048 505.250397,659.417236 501.391235,658.040527 &#10;&#9;C497.875031,656.786194 498.367920,653.611633 499.290558,650.821167 &#10;&#9;C504.099670,636.275696 507.878845,621.484558 510.121979,606.319824 &#10;&#9;C510.680664,602.542664 511.016510,598.732056 511.598633,594.958984 &#10;&#9;C512.745911,587.522766 510.258789,582.169861 503.471588,578.432739 &#10;&#9;C497.645721,575.224854 492.489868,570.928101 487.393158,566.613464 &#10;&#9;C474.042023,555.310852 469.520447,541.258362 473.150879,524.141113 &#10;&#9;C475.745758,511.906433 477.552887,499.536194 472.019836,487.431458 &#10;&#9;C466.986145,476.419189 459.607910,467.186249 451.105103,458.142059 &#10;&#9;C448.151215,462.397522 447.520233,466.796509 446.823242,470.868805 &#10;&#9;C443.964813,487.570526 438.246979,503.327057 431.686310,518.809937 &#10;&#9;C430.006897,522.773193 430.721222,525.515076 433.238098,528.781128 &#10;&#9;C458.244720,561.231628 476.721527,596.890015 485.748230,637.095825 &#10;&#9;C486.617554,640.967773 487.454895,644.862915 487.397064,648.907349 &#10;&#9;C487.355072,651.844666 486.880707,654.594849 483.553833,654.896362 &#10;&#9;C480.328156,655.188721 479.124146,652.779663 478.603210,649.804138 &#10;&#9;C474.731110,627.686340 467.400513,606.666565 457.635101,586.531311 &#10;&#9;C448.306396,567.296448 436.954498,549.234497 423.774597,532.399231 &#10;&#9;C420.135590,527.751038 419.344116,523.757935 422.271240,518.431458 &#10;&#9;C425.060822,513.355347 426.732391,507.676727 429.131012,502.369415 &#10;&#9;C430.645508,499.018402 429.737091,497.320374 426.443726,495.844727 &#10;&#9;C416.674713,491.467377 415.244049,492.194611 415.372131,502.573761 &#10;&#9;C415.524139,514.891785 415.846649,527.207703 416.096405,539.524536 &#10;&#9;C416.147491,542.042603 415.921783,544.537842 415.069183,546.912170 &#10;&#9;C414.421478,548.716064 412.941925,549.361877 411.087097,549.232361 &#10;&#9;C409.130585,549.095703 408.029297,547.972412 407.781311,546.109314 &#10;&#9;C407.606445,544.795776 407.649963,543.449097 407.649231,542.117188 &#10;&#9;C407.641144,526.950989 407.613190,511.784637 407.665588,496.618591 &#10;&#9;C407.677643,493.127563 406.968140,490.178375 403.009552,489.497864 &#10;&#9;C399.956512,488.972992 397.725830,489.335083 397.158417,493.475708 &#10;&#9;C395.540558,505.280975 396.724304,517.104126 396.354584,528.908936 &#10;&#9;C396.177277,534.570312 396.414673,540.245605 396.198181,545.904419 &#10;&#9;C396.090210,548.725952 394.972717,551.414062 391.485901,551.143433 &#10;&#9;C388.339050,550.899109 387.652039,548.380981 387.672485,545.657288 &#10;&#9;C387.786224,530.492188 387.928406,515.327148 388.012054,500.161835 &#10;&#9;C388.028381,497.201263 388.335846,494.180603 387.130188,491.370605 &#10;&#9;C379.213837,490.863922 376.992981,492.526703 377.433716,500.045349 &#10;&#9;C378.341064,515.524353 378.322235,531.005371 378.330597,546.492981 &#10;&#9;C378.331299,547.826172 378.374756,549.163147 378.293091,550.491882 &#10;&#9;C378.108643,553.491699 377.428101,556.533813 373.785522,556.570801 &#10;&#9;C369.892181,556.610291 369.663483,553.430054 369.662140,550.450378 &#10;&#9;C369.654999,534.784119 369.701752,519.117554 369.595673,503.452026 &#10;&#9;C369.578308,500.887970 370.842743,497.218994 366.591980,496.695557 &#10;&#9;C362.763428,496.224091 358.673126,500.025513 358.368561,503.832062 &#10;&#9;C358.262512,505.157684 358.319916,506.497223 358.320007,507.830383 &#10;&#9;C358.321259,524.496582 358.332733,541.162720 358.318420,557.828918 &#10;&#9;C358.316986,559.490601 358.354736,561.190613 358.030823,562.803833 &#10;&#9;C357.648407,564.708374 356.534180,566.158813 354.328278,566.244568 &#10;&#9;C352.120331,566.330383 350.850250,565.119812 350.517853,563.075500 &#10;&#9;C350.172577,560.951965 349.940979,558.785889 349.925385,556.636536 &#10;&#9;C349.813049,541.138489 349.784271,525.639771 349.678223,510.141663 &#10;&#9;C349.667175,508.527252 350.087128,506.794159 348.971313,505.331970 &#10;&#9;C341.855530,505.610687 339.298645,508.039978 339.383362,514.995483 &#10;&#9;C339.551666,528.817078 340.002228,542.635620 340.121185,556.457275 &#10;&#9;C340.164062,561.435669 339.591827,566.419617 339.295715,571.400757 &#10;&#9;C339.160980,573.667419 338.182434,575.218384 335.743347,575.454346 &#10;&#9;C333.054108,575.714661 331.682953,574.269409 331.327179,571.785706 &#10;&#9;C331.068207,569.977966 330.892517,568.138245 330.907227,566.314636 &#10;&#9;C331.016022,552.821899 330.455170,539.320496 331.524292,525.837280 &#10;&#9;C331.706024,523.545654 331.464722,521.148621 330.973999,518.897217 &#10;&#9;C330.546722,516.936829 332.052063,513.382568 328.331512,513.556702 &#10;&#9;C325.089752,513.708435 322.237274,515.489502 321.529541,519.156738 &#10;&#9;C321.249207,520.609253 321.357697,522.144348 321.355621,523.641907 &#10;&#9;C321.331848,540.808044 321.339752,557.974304 321.282654,575.140320 &#10;&#9;C321.275513,577.290771 321.113922,579.472290 320.717468,581.581787 &#10;&#9;C320.242279,584.110413 318.898376,585.864929 315.900330,585.466797 &#10;&#9;C313.028107,585.085327 312.659302,583.094055 312.663177,580.736084 &#10;&#9;C312.683716,568.236450 312.674286,555.736816 312.673340,543.237183 &#10;&#9;C312.672882,536.904053 312.700775,530.570679 312.647888,524.237915 &#10;&#9;C312.629761,522.063721 312.664154,519.306213 309.498138,519.780884 &#10;&#9;C307.002747,520.154968 303.411255,519.661743 303.169556,523.904724 &#10;&#9;C302.961426,527.559265 302.452179,531.206909 302.428131,534.859924 &#10;&#9;C302.321808,551.025513 302.339813,567.192017 302.319977,583.358154 &#10;&#9;C302.316711,586.030457 302.190552,588.673035 301.499634,591.286987 &#10;&#9;C300.946655,593.379150 299.752289,594.407166 297.586578,594.326965 &#10;&#9;C295.431854,594.247070 294.236572,593.066406 293.789825,591.042175 &#10;&#9;C293.683319,590.559570 293.675262,590.047058 293.680756,589.548950 &#10;&#9;C293.874084,572.058411 293.237061,554.558350 294.368408,537.077209 &#10;&#9;C294.626251,533.092896 294.565033,529.084473 294.558136,525.087280 &#10;&#9;C294.550232,520.526489 291.941711,519.268433 287.719391,519.260193 &#10;&#9;C282.966309,519.250977 283.361389,522.345947 283.358917,525.370300 &#10;&#9;C283.343384,544.369751 283.352844,563.369263 283.341217,582.368713 &#10;&#9;C283.340302,583.866211 283.424408,585.398865 283.144165,586.852600 &#10;&#9;C282.756531,588.863220 281.324799,590.045715 279.275879,590.127747 &#10;&#9;C277.367035,590.204163 276.220886,589.063416 275.678497,587.270752 &#10;&#9;C274.945099,584.846924 274.807098,582.362549 274.843842,579.851013 &#10;&#9;C275.116699,561.193665 275.415863,542.536499 275.628571,523.878418 &#10;&#9;C275.712250,516.538879 273.849365,514.738892 266.194855,514.326355 &#10;&#9;C264.854309,515.695740 265.380768,517.455505 265.370026,519.048767 &#10;&#9;C265.254395,536.213196 265.191406,553.378113 265.122833,570.542847 &#10;&#9;C265.114136,572.722839 265.229889,574.974976 263.396393,576.564697 &#10;&#9;C262.148468,577.646851 260.542755,577.546570 259.128937,576.971069 &#10;&#9;C256.644348,575.959595 256.655182,573.664429 256.660980,571.469055 &#10;&#9;C256.709503,553.137329 256.685608,534.804749 256.865845,516.474243 &#10;&#9;C256.948456,508.069946 256.419037,507.007050 248.312469,503.995697 &#10;&#9;C246.558517,506.354370 246.401779,509.127869 246.292313,511.943146 &#10;&#9;C245.664566,528.087463 245.035126,544.230957 245.328796,560.393738 &#10;&#9;C245.379639,563.192200 245.196457,566.111450 241.500381,566.198242 &#10;&#9;C237.840790,566.284363 236.701904,563.619751 236.709457,560.479858 &#10;&#9;C236.736710,549.151489 236.318451,537.810181 237.335007,526.503357 &#10;&#9;C238.065155,518.382080 237.259933,510.213806 238.491516,502.082642 &#10;&#9;C239.238327,497.152069 235.611145,494.704407 231.248535,492.855042 &#10;&#9;C227.870422,498.926636 227.270782,505.646606 226.528595,512.085938 &#10;&#9;C224.657806,528.317444 224.583069,544.611389 227.156097,560.832703 &#10;&#9;C227.656540,563.987732 226.834854,566.685547 223.234497,567.167603 &#10;&#9;C219.711533,567.639160 218.968979,565.265564 218.501572,562.231995 &#10;&#9;C210.678024,511.453430 223.544327,466.644684 256.939178,427.629944 &#10;&#9;C268.379639,414.264130 281.189056,402.433136 295.526978,392.268707 &#10;&#9;C298.333252,390.279266 300.064178,388.155212 299.669769,384.460449 &#10;&#9;C299.221161,380.257904 302.059692,377.293365 304.396393,374.310516 &#10;&#9;C310.371796,366.682800 317.363525,359.990204 324.265472,353.223419 &#10;&#9;C328.711395,348.864563 328.628143,348.911896 324.174683,344.845947 &#10;&#9;C313.773102,335.349579 307.260223,324.028259 307.602814,309.424011 &#10;&#9;C307.760986,302.679993 306.221558,301.537598 299.913879,303.449707 &#10;&#9;C276.321960,310.601318 252.283661,315.641479 227.876419,319.009674 &#10;&#9;C221.559280,319.881409 218.412766,316.895203 219.812897,310.144562 &#10;&#9;C223.643051,291.677765 229.918121,274.333282 243.271271,260.217163 &#10;&#9;C254.862244,247.963943 268.012543,237.990799 283.239502,230.721573 &#10;&#9;C289.483887,227.740524 289.480011,227.623627 287.179565,220.890396 &#10;&#9;C282.393433,206.881805 278.441040,192.695358 275.272675,178.187256 &#10;&#9;C271.104156,159.099457 276.321960,143.186981 289.222839,129.579651 &#10;&#9;C302.617920,115.451118 315.728912,100.974915 331.362732,89.130333 &#10;&#9;C345.041626,78.766876 359.991425,73.062950 377.420837,75.536690 &#10;&#9;C386.292847,76.795891 393.307190,74.592697 399.160492,66.892532 &#10;&#9;C408.646667,54.413170 419.166473,53.455170 434.940643,62.181011 &#10;&#9;C444.776611,67.622032 453.523682,74.525795 461.633423,82.253235 &#10;&#9;C476.115906,96.053062 490.269775,110.169868 502.958893,125.679214 &#10;&#9;C503.907593,126.838776 504.967651,127.906731 505.928589,129.056854 &#10;&#9;C508.843994,132.546173 511.731567,132.851761 515.807922,130.315323 &#10;&#9;C534.575317,118.637756 554.568726,109.651230 576.087097,104.310104 &#10;&#9;C583.664734,102.429230 591.367004,100.920639 599.174805,100.738655 &#10;&#9;C612.288574,100.432991 617.266724,108.745728 611.174438,120.411934 &#10;&#9;C604.994263,132.246445 594.913086,140.597916 584.949524,148.911774 &#10;&#9;C574.057861,157.999969 561.992065,165.494537 549.887268,172.848480 &#10;&#9;C545.780762,175.343307 544.277466,178.148132 546.178162,182.706940 &#10;&#9;C547.941223,186.935638 547.763245,191.573227 548.023438,195.991394 &#10;&#9;C548.529419,204.580170 552.733215,210.737091 559.225342,215.684845 &#10;&#9;C563.993042,219.318390 569.086304,222.536682 573.744934,226.298706 &#10;&#9;C581.144409,232.274139 581.232727,237.084198 574.489868,243.695847 &#10;&#9;C573.775879,244.395920 573.141113,245.221741 572.319153,245.759003 &#10;&#9;C568.544189,248.226349 568.206421,250.684631 570.899902,254.622833 &#10;&#9;C574.152161,259.378021 573.977112,264.761566 570.167175,269.461487 &#10;&#9;C568.553589,271.452087 568.409058,273.115936 569.751831,275.288788 &#10;&#9;C572.329468,279.459778 572.084351,283.922333 570.165039,288.214569 &#10;&#9;C568.442505,292.066467 568.335083,295.655334 569.626343,299.751404 &#10;&#9;C573.532959,312.143738 569.657166,320.216919 557.671204,325.397156 &#10;&#9;C552.289368,327.723175 546.617432,328.997314 540.755554,329.371368 &#10;&#9;C538.072510,329.542572 535.505432,330.073944 533.315735,331.631073 &#10;&#9;C532.913757,333.981293 534.484863,335.495850 535.331055,337.251282 &#10;&#9;C542.384033,351.882874 546.431335,366.845367 540.631714,382.967682 &#10;&#9;C538.811462,388.027954 539.611877,392.361145 542.959534,396.889343 &#10;&#9;C548.309509,404.126007 554.570068,410.617981 559.533875,418.168518 &#10;&#9;C570.461853,434.791229 572.993835,452.542633 567.583923,471.582245 &#10;&#9;C566.450256,475.572113 565.391663,479.606262 564.672485,483.685974 &#10;&#9;C563.278625,491.594086 565.098389,498.844391 569.599365,505.505402 &#10;&#9;C574.546509,512.826782 579.265320,520.265503 581.341125,529.053894 &#10;&#9;C584.217529,541.232422 583.100159,553.144897 579.245361,564.904602 &#10;&#9;C577.536133,570.118896 575.566101,575.252075 574.996094,580.775391 &#10;&#9;C574.114929,589.314148 582.033325,596.689026 590.539429,595.208984 &#10;&#9;C596.417175,594.186279 598.419800,596.472961 596.904541,602.476868 &#10;&#9;C592.092773,621.542175 569.449585,630.709229 552.607605,620.410339 &#10;&#9;C545.282898,615.931274 544.551270,616.358093 543.239868,624.715759 &#10;&#9;C542.160095,631.597656 540.653564,638.411682 539.407654,645.268860 &#10;&#9;C538.804565,648.587952 537.519287,651.241943 533.576050,650.381531 &#10;&#9;C529.715454,649.539185 529.511658,646.632568 530.239258,643.329285 &#10;&#9;C536.133667,616.568420 538.484680,589.476990 537.677124,562.101318 &#10;&#9;C537.300964,549.347412 534.170959,537.130371 530.262512,525.086792 &#10;&#9;C528.217163,518.784241 525.799988,512.805237 521.911316,507.155823 &#10;&#9;C515.954041,498.501221 515.472900,488.203400 516.131348,477.871796 &#10;&#9;C516.541321,471.439362 518.126587,465.116913 517.280212,458.545563 &#10;&#9;C516.249084,450.540283 513.178955,443.573883 508.467682,437.115753 &#10;&#9;C503.012360,429.637665 496.550446,422.938507 492.269257,414.638916 &#10;&#9;C489.797882,416.063507 490.505890,417.575714 490.678894,419.004120 &#10;&#9;C491.842590,428.611969 495.392914,437.299194 500.684235,445.345245 &#10;&#9;C508.300720,456.927002 511.716400,469.797821 512.261963,484.002594 &#10;M284.800629,178.787048 &#10;&#9;C287.856262,192.604080 292.315369,206.003235 296.802399,219.399124 &#10;&#9;C297.964447,222.868256 299.637115,224.359634 303.448853,222.907440 &#10;&#9;C307.009552,221.550919 310.715118,220.462296 314.446228,219.683273 &#10;&#9;C346.329010,213.026291 376.323944,201.861206 403.801758,184.006668 &#10;&#9;C431.396606,166.076080 458.084198,147.173981 479.723511,121.983780 &#10;&#9;C482.095978,119.222038 482.600555,117.630486 479.820435,114.634850 &#10;&#9;C470.514282,104.607323 460.633179,95.189011 450.580322,85.944160 &#10;&#9;C442.579437,78.586365 433.997894,71.998650 423.780090,67.914688 &#10;&#9;C416.076782,64.835739 413.477051,65.634933 408.185577,71.906151 &#10;&#9;C403.227753,77.781883 398.175262,83.548218 389.887390,84.878365 &#10;&#9;C385.886932,85.520401 381.808258,85.804306 377.955109,85.105370 &#10;&#9;C362.192291,82.246086 349.104584,88.162262 337.164246,97.336952 &#10;&#9;C320.856476,109.867477 307.168243,125.188263 293.108948,140.076508 &#10;&#9;C290.969879,142.341721 289.423920,145.209045 287.810333,147.920868 &#10;&#9;C282.158417,157.419556 282.763336,167.639053 284.800629,178.787048 &#10;M464.094299,179.632095 &#10;&#9;C454.578400,185.474091 444.798584,190.807755 434.627533,195.445801 &#10;&#9;C405.661255,208.654541 374.936859,215.844589 343.995544,222.462540 &#10;&#9;C323.493622,226.847626 303.067413,231.759979 284.238464,241.449524 &#10;&#9;C258.080353,254.910706 238.800812,274.339813 231.084076,303.613434 &#10;&#9;C229.812744,308.436249 230.242477,308.794006 235.130478,308.059418 &#10;&#9;C262.800415,303.901001 289.828583,297.086914 316.474487,288.642670 &#10;&#9;C359.132660,275.123993 400.326965,258.252686 438.937225,235.418274 &#10;&#9;C464.051605,220.565460 487.838165,203.727371 511.590393,186.844315 &#10;&#9;C533.171570,171.504456 556.227417,158.314377 577.133057,142.010452 &#10;&#9;C586.596680,134.629959 595.562927,126.608757 602.109802,116.375565 &#10;&#9;C604.595825,112.489716 603.159607,110.111977 598.710205,110.603600 &#10;&#9;C592.610291,111.277565 586.417847,111.355270 580.440979,112.998108 &#10;&#9;C552.503418,120.677208 526.885437,133.163086 503.905487,150.775925 &#10;&#9;C491.077148,160.608063 478.464630,170.700989 464.094299,179.632095 &#10;M417.079681,433.614349 &#10;&#9;C408.172913,439.759521 399.668823,446.497345 390.315918,451.984070 &#10;&#9;C385.057495,455.068878 382.739929,454.441559 379.890167,449.113525 &#10;&#9;C376.903534,443.529633 373.950989,437.932800 370.209412,432.807068 &#10;&#9;C355.774567,413.032104 337.547699,398.906952 313.012909,393.838348 &#10;&#9;C308.628174,392.932495 305.547485,394.442749 302.490143,396.843628 &#10;&#9;C290.026306,406.631378 278.060333,416.950531 267.760376,429.087128 &#10;&#9;C254.652588,444.532166 243.171112,460.987396 235.311447,479.792145 &#10;&#9;C234.031525,482.854431 234.137955,484.994843 237.252686,486.928131 &#10;&#9;C247.301956,493.165710 257.313446,499.454773 268.057465,504.461945 &#10;&#9;C280.210938,510.125977 292.933685,512.746216 306.369415,511.629578 &#10;&#9;C316.493378,510.788208 320.410858,507.587646 322.420593,498.580963 &#10;&#9;C324.263916,490.320068 326.306702,482.103729 328.151001,473.843048 &#10;&#9;C330.572906,462.995361 333.060303,452.124146 332.197998,440.897308 &#10;&#9;C331.992584,438.223267 331.395935,435.533142 334.744507,434.960876 &#10;&#9;C338.098877,434.387634 339.084747,437.315735 339.187042,439.775360 &#10;&#9;C339.469971,446.578064 339.703705,453.380890 338.797607,460.202850 &#10;&#9;C337.193970,472.276245 333.570282,483.873230 330.897858,495.692932 &#10;&#9;C330.434753,497.741364 329.567780,499.790741 330.887482,501.814728 &#10;&#9;C332.983948,502.146118 334.544891,501.072266 336.190887,500.335693 &#10;&#9;C345.759247,496.054077 354.987549,491.052002 364.862732,487.409241 &#10;&#9;C384.841064,480.039642 404.770966,477.594910 425.090454,486.238037 &#10;&#9;C434.046387,490.047516 434.273926,489.779419 436.802094,479.820282 &#10;&#9;C439.165955,470.508575 439.449738,460.705017 443.494690,451.770081 &#10;&#9;C443.994263,450.666626 444.061157,448.931000 443.543121,447.872833 &#10;&#9;C439.694672,440.012238 436.376068,431.922638 433.388245,423.398346 &#10;&#9;C427.328217,426.194580 422.591461,429.850037 417.079681,433.614349 &#10;M546.585388,216.965469 &#10;&#9;C544.619568,214.188568 542.619995,212.900772 539.264648,215.449188 &#10;&#9;C535.217346,218.523224 530.284790,218.664337 525.388000,218.311157 &#10;&#9;C522.514709,218.103928 519.828186,217.268738 519.922241,213.828934 &#10;&#9;C520.011536,210.563019 522.817566,210.755844 525.161926,210.670303 &#10;&#9;C538.945557,210.167389 541.973328,196.619293 537.567749,186.760025 &#10;&#9;C536.320190,183.968048 534.177002,183.891174 531.803589,185.427536 &#10;&#9;C528.448486,187.599426 525.236206,190.037582 521.719849,191.904099 &#10;&#9;C516.519897,194.664261 514.687744,199.074600 514.398682,204.573120 &#10;&#9;C513.428162,223.032959 509.149597,240.378448 497.330811,255.200974 &#10;&#9;C494.669006,258.539307 493.944061,262.120605 495.823975,266.314667 &#10;&#9;C497.375427,269.775970 498.431641,273.506805 499.315277,277.211700 &#10;&#9;C503.298737,293.913971 501.924255,310.493164 497.937408,326.999207 &#10;&#9;C497.184387,330.116913 496.335175,333.342468 498.569122,336.436035 &#10;&#9;C499.250824,336.134979 499.896576,336.065704 500.085358,335.735260 &#10;&#9;C506.622742,324.293488 517.156311,321.689697 529.388245,321.461121 &#10;&#9;C537.273010,321.313812 545.378601,320.848267 552.849304,317.513611 &#10;&#9;C561.154968,313.806244 562.920593,310.004181 560.353760,301.344818 &#10;&#9;C559.021606,296.850952 557.817444,292.544922 560.323242,287.859467 &#10;&#9;C563.480408,281.955902 563.225525,281.819550 557.054688,279.183807 &#10;&#9;C552.916992,277.416473 552.389587,274.174713 555.774536,271.053925 &#10;&#9;C556.627136,270.267883 557.625122,269.640991 558.544373,268.925659 &#10;&#9;C565.101013,263.823730 565.072571,259.141174 558.445740,254.113205 &#10;&#9;C557.783752,253.610962 557.031921,253.226349 556.374695,252.718719 &#10;&#9;C552.519775,249.741074 552.747559,246.914078 557.118530,244.836517 &#10;&#9;C560.114929,243.412323 563.362122,242.521744 565.979736,240.327621 &#10;&#9;C570.009277,236.950043 569.970947,235.537079 565.835083,232.353760 &#10;&#9;C559.509033,227.484726 552.646118,223.289841 546.585388,216.965469 &#10;M318.880493,385.517883 &#10;&#9;C348.612152,393.720428 370.368408,411.859009 384.802521,438.878937 &#10;&#9;C386.761932,442.546783 388.322754,443.031677 391.589111,440.764313 &#10;&#9;C404.167328,432.032898 416.801544,423.380737 429.494476,414.816986 &#10;&#9;C432.685547,412.664062 432.658081,410.768311 430.236328,407.995331 &#10;&#9;C422.112061,398.692932 413.390686,390.002502 403.926727,382.084961 &#10;&#9;C389.920044,370.366913 374.415924,361.741425 356.005096,359.054810 &#10;&#9;C350.782104,358.292633 345.412109,357.732635 340.596466,355.271362 &#10;&#9;C337.496094,353.686829 335.294464,354.686218 333.126007,357.030914 &#10;&#9;C328.152985,362.407990 322.958405,367.582458 318.055115,373.020752 &#10;&#9;C315.444427,375.916321 312.472748,378.645935 311.089294,382.475861 &#10;&#9;C313.171539,384.543671 315.854462,384.392426 318.880493,385.517883 &#10;M481.227783,537.287109 &#10;&#9;C481.641724,546.925720 487.814514,557.075928 493.927032,558.139893 &#10;&#9;C494.487823,556.879333 493.697296,555.890808 493.198456,554.892944 &#10;&#9;C489.526306,547.548035 489.197815,539.907104 491.129700,532.066711 &#10;&#9;C492.122955,528.035767 492.902374,523.924438 494.255463,520.014526 &#10;&#9;C501.130310,500.148499 497.617767,482.471375 483.916840,466.514465 &#10;&#9;C478.808075,460.564514 473.441711,454.893829 468.040375,449.232086 &#10;&#9;C454.713531,435.262665 449.642456,419.360443 457.342499,400.818634 &#10;&#9;C460.722809,392.678802 464.752228,384.810822 468.366333,376.765228 &#10;&#9;C474.485168,363.143768 474.429016,349.720123 466.804382,336.609039 &#10;&#9;C465.464996,334.305878 464.167908,331.978149 462.843719,329.666107 &#10;&#9;C448.684052,304.943054 448.445160,280.483978 463.928436,256.139801 &#10;&#9;C469.454926,247.450607 476.331970,239.543976 479.966583,229.739883 &#10;&#9;C480.912201,227.189209 483.893219,223.656067 480.517700,221.759140 &#10;&#9;C477.609711,220.124954 474.746490,223.302078 472.583618,225.587219 &#10;&#9;C467.422913,231.039688 462.829437,236.965042 458.533722,243.116196 &#10;&#9;C445.172302,262.248932 439.578094,282.325348 449.562012,305.050140 &#10;&#9;C455.858032,319.380707 456.933563,334.636047 454.212280,350.048035 &#10;&#9;C452.527893,359.587830 448.770905,368.539612 445.798615,377.710663 &#10;&#9;C436.395264,406.725128 440.965027,432.794464 461.997589,455.504272 &#10;&#9;C466.865387,460.760284 471.191711,466.505859 474.923798,472.627167 &#10;&#9;C481.004456,482.600525 484.397766,493.261658 484.500488,505.190277 &#10;&#9;C484.591614,515.777588 480.692719,525.815735 481.227783,537.287109 &#10;M477.205902,319.170685 &#10;&#9;C467.078094,298.709351 469.889313,279.286041 481.927551,260.617218 &#10;&#9;C486.796204,253.066879 492.705322,246.204880 496.927704,238.231415 &#10;&#9;C501.664307,229.286880 504.340942,219.747360 504.613098,209.598175 &#10;&#9;C504.712891,205.876694 503.319305,204.737503 499.734406,206.732208 &#10;&#9;C495.516205,209.079285 493.001617,212.221161 492.255310,217.171997 &#10;&#9;C490.494415,228.853470 486.141418,239.584656 479.380707,249.310364 &#10;&#9;C476.815094,253.001221 474.184723,256.651886 471.749420,260.427643 &#10;&#9;C460.318726,278.149933 457.469116,296.710205 466.648926,316.301117 &#10;&#9;C469.260864,321.875336 472.174408,327.308136 474.944000,332.808594 &#10;&#9;C483.622925,350.044983 483.995667,367.177734 474.680084,384.386383 &#10;&#9;C471.437653,390.375977 468.764374,396.678925 465.937683,402.887268 &#10;&#9;C459.789917,416.389832 461.374603,428.981140 471.411041,439.915192 &#10;&#9;C481.396027,450.793182 492.821411,460.412506 499.960022,473.688538 &#10;&#9;C500.007050,473.776062 500.270142,473.747375 500.490448,473.782135 &#10;&#9;C502.089050,472.608948 501.207001,471.172607 500.918915,469.749115 &#10;&#9;C499.235962,461.433777 495.119171,454.203644 490.812866,447.068787 &#10;&#9;C484.635803,436.834503 481.962524,425.688934 481.613312,413.816650 &#10;&#9;C481.284546,402.639038 485.938110,392.768463 489.282440,382.535645 &#10;&#9;C494.226868,367.406921 494.627533,352.553223 486.799133,338.099365 &#10;&#9;C483.551514,332.103149 480.615936,325.937958 477.205902,319.170685 &#10;M565.484070,587.482239 &#10;&#9;C565.881165,577.927368 569.072388,569.019775 571.690369,559.956299 &#10;&#9;C573.575012,553.431335 574.790955,546.842102 574.242737,539.845032 &#10;&#9;C573.422363,529.374329 568.478821,520.816345 562.891846,512.528442 &#10;&#9;C554.334839,499.834717 552.937439,486.446045 557.815796,472.122467 &#10;&#9;C559.798157,466.302094 561.438477,460.355591 561.631653,454.153839 &#10;&#9;C562.326050,431.860809 547.595825,417.523254 535.094849,401.432526 &#10;&#9;C532.678406,404.659363 533.266174,407.452789 533.741699,410.190613 &#10;&#9;C534.607849,415.177246 536.601074,419.741058 539.298889,423.985352 &#10;&#9;C549.533813,440.087585 551.042847,457.196930 545.368591,475.184845 &#10;&#9;C543.619263,480.730560 541.720764,486.274658 541.391846,492.131561 &#10;&#9;C540.787598,502.893768 546.111328,511.269958 552.711609,519.008240 &#10;&#9;C560.873230,528.577209 564.464722,539.696716 564.301147,552.135986 &#10;&#9;C564.202515,559.631226 562.487488,566.946289 561.693909,574.363647 &#10;&#9;C561.185181,579.119019 560.442444,584.033386 565.484070,587.482239 &#10;M423.637207,255.160156 &#10;&#9;C414.864624,258.880402 409.006226,274.872253 410.654205,284.514526 &#10;&#9;C412.395447,294.702301 417.491760,303.201202 423.733612,311.090302 &#10;&#9;C431.794128,321.278015 438.038696,332.324768 440.903137,345.098755 &#10;&#9;C441.725372,348.765594 442.410645,352.463135 443.360138,357.138367 &#10;&#9;C445.635712,352.045349 446.272797,347.691498 446.681335,343.229980 &#10;&#9;C447.977234,329.077850 444.456696,315.875610 439.322113,302.877136 &#10;&#9;C434.723877,291.236267 434.473999,279.299225 437.476562,267.137024 &#10;&#9;C439.665192,258.271698 443.698883,250.214874 448.387115,241.262817 &#10;&#9;C439.651855,246.179306 431.966919,250.504639 423.637207,255.160156 &#10;M385.297607,288.651520 &#10;&#9;C384.462677,297.035645 387.256592,304.349945 391.809204,311.198517 &#10;&#9;C396.436462,318.159332 401.674530,324.644806 407.487335,330.606934 &#10;&#9;C421.734344,345.219788 429.099670,362.324036 427.406982,382.974976 &#10;&#9;C427.255707,384.820953 426.669067,386.939819 428.260773,388.754486 &#10;&#9;C428.715210,388.401642 429.165588,388.172424 429.440063,387.810028 &#10;&#9;C429.837067,387.285706 430.241943,386.701630 430.410553,386.079895 &#10;&#9;C433.665344,374.077240 434.975342,361.857452 433.052032,349.551971 &#10;&#9;C431.281403,338.223633 425.230804,328.798981 418.301666,319.911560 &#10;&#9;C410.118256,309.415405 403.414551,298.291748 402.069489,284.577972 &#10;&#9;C401.452057,278.283020 403.386414,272.108185 402.504791,265.813538 &#10;&#9;C389.386444,270.267426 385.853699,274.797668 385.297607,288.651520 &#10;M527.658203,499.705963 &#10;&#9;C529.206665,501.598785 529.677063,504.615845 533.570129,505.196533 &#10;&#9;C531.626892,497.004730 531.311829,489.320404 534.015686,481.757050 &#10;&#9;C535.413513,477.846924 536.742920,473.908539 537.967468,469.941040 &#10;&#9;C541.036804,459.996429 539.407349,451.009277 532.686340,442.879639 &#10;&#9;C529.067993,438.502930 525.151428,434.445282 521.106079,430.492828 &#10;&#9;C506.585388,416.305664 501.657257,400.058350 509.941681,380.689270 &#10;&#9;C513.220642,373.023041 515.811646,365.082550 514.653625,356.502380 &#10;&#9;C513.928650,351.131195 513.063416,345.784882 509.534760,340.669373 &#10;&#9;C503.915497,347.395081 500.717102,354.534363 500.375244,362.735199 &#10;&#9;C500.001038,371.711578 499.845795,380.657715 496.099823,389.089935 &#10;&#9;C494.847717,391.908508 495.202911,394.946136 495.743469,397.930267 &#10;&#9;C497.633911,408.366394 503.712799,416.442932 510.587646,424.005280 &#10;&#9;C523.221497,437.902466 528.470337,453.932800 525.592285,472.661285 &#10;&#9;C524.233154,481.505280 522.864014,490.506683 527.658203,499.705963 &#10;M409.482483,362.007629 &#10;&#9;C406.889374,358.543518 404.434418,354.964996 401.676758,351.637238 &#10;&#9;C394.050751,342.434601 384.119263,335.860168 374.935364,328.427551 &#10;&#9;C363.346741,319.048767 354.954987,307.903198 355.570374,291.994995 &#10;&#9;C355.602051,291.177155 355.390442,290.344482 355.248505,289.526276 &#10;&#9;C354.780029,286.825928 353.532990,285.982544 350.690552,286.934387 &#10;&#9;C343.214325,289.437897 339.541077,294.190063 339.339966,302.091248 &#10;&#9;C339.076965,312.421295 344.839264,319.588287 351.946503,325.974091 &#10;&#9;C358.697815,332.040070 366.884277,335.950653 374.585876,340.574524 &#10;&#9;C383.688049,346.039307 392.564941,352.080017 397.248779,361.814667 &#10;&#9;C401.593658,370.844910 409.651917,375.278687 417.582092,382.128876 &#10;&#9;C416.193512,374.165039 413.254150,368.310669 409.482483,362.007629 &#10;M443.677368,168.223022 &#10;&#9;C429.398804,178.780075 414.395325,188.289383 398.274811,198.493774 &#10;&#9;C400.377808,198.595062 400.879730,198.695923 401.355255,198.623428 &#10;&#9;C402.003204,198.524673 402.642548,198.327469 403.265839,198.114655 &#10;&#9;C438.592224,186.053223 469.179749,165.924683 497.882080,142.572876 &#10;&#9;C500.416718,140.510727 501.007538,138.157608 498.927765,135.693268 &#10;&#9;C495.977356,132.197250 492.726318,128.954956 489.120911,125.086128 &#10;&#9;C476.271332,142.309692 460.451782,155.259018 443.677368,168.223022 &#10;M575.286987,613.865173 &#10;&#9;C576.773743,613.129883 578.322021,612.494934 579.729919,611.631226 &#10;&#9;C581.143921,610.763855 582.752563,609.691956 582.339661,607.768433 &#10;&#9;C581.921936,605.822327 580.057007,605.593201 578.364197,605.423889 &#10;&#9;C577.868225,605.374329 577.364624,605.401794 576.868164,605.355347 &#10;&#9;C561.749268,603.938293 552.803711,594.051758 552.609192,578.954773 &#10;&#9;C552.509949,571.247986 554.315063,563.800354 555.093689,556.217468 &#10;&#9;C556.316467,544.309265 553.368469,533.819153 545.231628,524.990356 &#10;&#9;C543.674622,523.300903 541.854675,521.332153 539.052307,521.684570 &#10;&#9;C538.110168,523.669861 539.185486,525.183899 539.686218,526.666138 &#10;&#9;C545.275330,543.211426 547.567688,560.228638 547.106995,577.641846 &#10;&#9;C546.975220,582.621094 546.304626,587.604980 546.454224,592.569397 &#10;&#9;C546.907043,607.596008 562.397217,620.300354 575.286987,613.865173 &#10;M364.674286,344.899567 &#10;&#9;C360.765350,342.675720 356.729126,340.646851 352.970551,338.192749 &#10;&#9;C339.961761,329.698975 330.422333,318.979095 330.598450,302.226257 &#10;&#9;C330.624023,299.791290 331.166565,296.764526 328.247192,295.683594 &#10;&#9;C325.336914,294.606049 322.727539,296.293457 320.495453,298.103088 &#10;&#9;C318.753479,299.515411 318.005219,301.616150 317.474121,303.740448 &#10;&#9;C314.056274,317.411438 319.885284,327.769836 329.609650,336.476837 &#10;&#9;C341.049744,346.720154 357.443634,352.488098 377.591736,353.819519 &#10;&#9;C374.091064,349.992401 369.656311,347.687103 364.674286,344.899567 &#10;M534.688416,366.421478 &#10;&#9;C535.190796,355.602295 531.466125,346.207489 524.922119,337.810852 &#10;&#9;C523.204895,335.607513 521.162903,333.718536 517.383850,333.881226 &#10;&#9;C518.044128,336.182800 518.582642,338.052307 519.116760,339.923065 &#10;&#9;C520.981201,346.453278 523.026672,352.892426 523.430542,359.798889 &#10;&#9;C523.995972,369.467621 520.478088,378.078156 517.292847,386.799866 &#10;&#9;C513.070496,398.361511 514.363220,408.961517 522.318298,418.553986 &#10;&#9;C523.331116,419.775299 524.006958,421.539673 526.257874,420.877899 &#10;&#9;C526.360901,420.402924 526.664917,419.867584 526.534058,419.478485 &#10;&#9;C522.670471,407.989380 525.594604,397.256470 529.851990,386.545807 &#10;&#9;C532.295044,380.399780 534.888550,374.200500 534.688416,366.421478 &#10;M376.673523,286.737244 &#10;&#9;C376.256775,283.414429 378.393036,280.319000 377.622284,276.805176 &#10;&#9;C374.177338,277.272583 371.255768,278.905670 368.214539,280.161591 &#10;&#9;C366.235535,280.978851 364.791107,282.579102 364.644196,284.659058 &#10;&#9;C364.200684,290.938110 363.366211,297.270813 366.225159,303.312073 &#10;&#9;C372.259155,316.062469 383.529205,323.405060 394.546478,331.071747 &#10;&#9;C390.435883,324.230743 384.789154,318.553314 381.190735,311.362183 &#10;&#9;C377.408325,303.803436 376.137268,295.960693 376.673523,286.737244 &#10;M492.617798,307.088806 &#10;&#9;C492.994232,294.738708 492.868744,282.475128 486.842926,270.789154 &#10;&#9;C476.534668,284.090485 478.259003,309.767273 489.830109,320.480042 &#10;&#9;C492.418610,316.663940 491.141785,312.029694 492.617798,307.088806 &#10;M506.749359,549.383667 &#10;&#9;C505.595764,544.155457 504.848846,538.775513 501.041656,533.392700 &#10;&#9;C498.352844,540.512390 498.473297,546.502319 501.642975,552.343384 &#10;&#9;C502.566101,554.044434 503.767670,556.346252 506.125610,555.373718 &#10;&#9;C508.586060,554.358948 507.529633,552.052002 506.749359,549.383667 &#10;z"/>
<path fill="#c9641c" opacity="1.000000" stroke="none" d="&#10;M669.694275,628.011658 &#10;&#9;C665.112244,629.103516 661.047424,630.562439 656.595581,630.415283 &#10;&#9;C652.062500,630.265503 649.922058,628.196289 649.651611,623.746582 &#10;&#9;C648.739136,608.733093 648.742065,608.621765 634.294128,604.720032 &#10;&#9;C616.257568,599.849243 604.616150,589.153442 602.986206,569.865723 &#10;&#9;C602.230896,560.928406 602.684265,551.887878 602.619873,542.893860 &#10;&#9;C602.584167,537.906982 602.609253,532.949097 603.720154,528.012329 &#10;&#9;C606.210938,516.943726 613.722290,510.829346 622.853210,512.711243 &#10;&#9;C629.422363,514.065125 634.088562,520.961975 635.406738,530.210815 &#10;&#9;C636.495361,537.849426 636.218323,545.487244 636.316833,553.132812 &#10;&#9;C636.371765,557.398987 637.977234,560.894043 641.187988,563.640259 &#10;&#9;C642.715149,564.946472 644.414856,566.326477 646.562988,565.526855 &#10;&#9;C648.923035,564.648438 648.657959,562.358948 648.667175,560.386108 &#10;&#9;C648.702942,552.722656 648.686646,545.058899 648.687378,537.395264 &#10;&#9;C648.688599,524.400391 648.723511,511.405457 648.674133,498.410797 &#10;&#9;C648.647217,491.312225 646.312500,487.989349 639.678955,485.734222 &#10;&#9;C635.748352,484.398010 631.654236,483.536591 627.739807,482.160034 &#10;&#9;C609.885437,475.881165 602.389404,465.682495 601.742920,446.791046 &#10;&#9;C601.316162,434.319580 602.237549,421.820587 600.832458,409.360840 &#10;&#9;C600.345398,405.041840 601.157349,400.681549 602.182861,396.515198 &#10;&#9;C604.334473,387.773285 612.960693,381.868042 621.658203,382.735413 &#10;&#9;C631.303955,383.697327 636.872986,390.089630 637.238464,401.397858 &#10;&#9;C637.550476,411.050781 637.280884,420.721497 637.345825,430.383789 &#10;&#9;C637.378418,435.239349 638.984802,439.542419 642.563904,442.919708 &#10;&#9;C644.010193,444.284393 645.776733,445.783783 647.865845,445.072266 &#10;&#9;C650.320007,444.236420 649.642151,441.742371 649.648621,439.854950 &#10;&#9;C649.697449,425.694122 649.656433,411.532990 649.653137,397.371948 &#10;&#9;C649.649780,382.711090 649.443237,368.045898 649.738647,353.390930 &#10;&#9;C649.920471,344.370178 652.390381,335.956757 659.271912,329.485626 &#10;&#9;C668.843933,320.484436 681.417114,322.643646 687.545837,334.323059 &#10;&#9;C691.908142,342.636322 693.226562,351.704407 693.266357,360.872650 &#10;&#9;C693.421326,396.524506 693.319885,432.177521 693.312256,467.830078 &#10;&#9;C693.311646,470.662292 693.196838,473.498810 693.317993,476.325531 &#10;&#9;C693.453735,479.494141 692.277893,483.959869 696.741089,484.521912 &#10;&#9;C700.916870,485.047791 702.340454,480.872437 703.375671,477.542175 &#10;&#9;C704.305603,474.550690 704.729431,471.420380 704.704651,468.202087 &#10;&#9;C704.602112,454.874878 704.612061,441.545929 704.706848,428.218506 &#10;&#9;C704.745056,422.839294 705.813293,417.627075 708.589783,412.921234 &#10;&#9;C711.588135,407.839355 715.958496,404.662811 721.983093,404.752258 &#10;&#9;C727.980469,404.841370 732.329651,408.028076 735.194824,413.214111 &#10;&#9;C738.915283,419.948425 740.059814,427.413269 740.198853,434.875854 &#10;&#9;C740.515442,451.863281 740.481628,468.863007 740.223755,485.852173 &#10;&#9;C740.136108,491.626984 739.250183,497.419189 737.854065,503.093445 &#10;&#9;C734.949280,514.899170 727.175049,522.426453 716.502197,527.253418 &#10;&#9;C711.969421,529.303467 707.156372,530.733643 702.471680,532.448059 &#10;&#9;C695.621643,534.954895 693.356873,538.174255 693.348389,545.548035 &#10;&#9;C693.326172,564.872070 693.030945,584.202393 693.444885,603.517395 &#10;&#9;C693.642334,612.729675 689.794189,618.715271 681.985291,622.772827 &#10;&#9;C678.139771,624.770874 674.258484,626.670410 669.694275,628.011658 &#10;M658.346191,446.186340 &#10;&#9;C657.690247,453.573090 652.788147,456.928253 645.533447,454.873596 &#10;&#9;C637.539368,452.609650 632.254456,447.439362 629.790771,439.545044 &#10;&#9;C628.348938,434.924866 627.744873,430.138031 627.755310,425.270416 &#10;&#9;C627.772461,417.274811 627.828003,409.274689 627.589294,401.284821 &#10;&#9;C627.445007,396.455719 623.946289,392.134308 620.325012,391.576019 &#10;&#9;C616.722168,391.020630 612.902100,394.339661 611.179504,399.343292 &#10;&#9;C610.513123,401.278839 610.295959,403.224823 610.328308,405.233215 &#10;&#9;C610.561646,419.701996 609.854370,434.172119 611.230469,448.642670 &#10;&#9;C612.039124,457.145660 614.965820,464.020325 622.112183,468.932251 &#10;&#9;C627.271973,472.478729 632.843506,474.761108 639.067810,475.761017 &#10;&#9;C651.065491,477.688293 656.901855,483.581329 657.306763,494.002197 &#10;&#9;C657.707520,504.314209 658.075378,514.632690 658.157715,524.950684 &#10;&#9;C658.293213,541.941589 658.177246,558.934326 658.185913,575.926331 &#10;&#9;C658.192627,589.086731 658.242554,602.247131 658.238525,615.407532 &#10;&#9;C658.237610,618.391785 658.807800,621.142395 662.544128,620.509277 &#10;&#9;C669.339111,619.357910 675.768066,616.986023 681.156006,612.556580 &#10;&#9;C683.853699,610.338867 684.813416,607.155762 684.621277,603.576355 &#10;&#9;C683.522705,583.112061 683.431458,562.652527 684.595642,542.176636 &#10;&#9;C685.208923,531.390015 688.960266,526.281738 699.271545,523.672668 &#10;&#9;C701.041870,523.224731 702.850281,522.920410 704.608582,522.432617 &#10;&#9;C716.765503,519.060242 726.181702,512.574036 729.072571,499.496613 &#10;&#9;C730.392700,493.524567 731.381042,487.367950 731.531006,481.270752 &#10;&#9;C731.883179,466.952423 731.899109,452.612701 731.523743,438.295471 &#10;&#9;C731.346863,431.550781 731.064880,424.586151 727.371765,418.489197 &#10;&#9;C724.069214,413.037140 718.618408,413.113739 715.735107,418.758301 &#10;&#9;C713.815918,422.515259 713.357239,426.685364 713.354492,430.879761 &#10;&#9;C713.346130,443.540894 713.349670,456.201996 713.348633,468.863129 &#10;&#9;C713.348083,475.704315 711.312866,481.989502 707.881775,487.810699 &#10;&#9;C704.825012,492.996887 698.142700,495.564697 692.239807,494.085999 &#10;&#9;C686.620605,492.678406 684.009888,488.836761 683.862610,481.586182 &#10;&#9;C683.778076,477.422882 683.811646,473.257050 683.800964,469.092377 &#10;&#9;C683.703003,430.804260 686.210938,392.514526 683.697021,354.226532 &#10;&#9;C683.332458,348.674133 682.276489,343.313568 679.593079,338.428650 &#10;&#9;C675.814270,331.549377 670.022522,330.944244 664.746155,336.765015 &#10;&#9;C662.711975,339.009003 661.170898,341.598572 660.375671,344.538208 &#10;&#9;C659.203186,348.872528 658.308716,353.237457 658.317383,357.788940 &#10;&#9;C658.372864,386.942688 658.349487,416.096619 658.346191,446.186340 &#10;M649.639160,591.985657 &#10;&#9;C649.643127,590.986450 649.618713,589.986206 649.655518,588.988220 &#10;&#9;C649.912048,582.037231 648.626648,576.743591 640.503784,574.277710 &#10;&#9;C632.802917,571.939941 629.025879,565.238831 627.602783,557.279907 &#10;&#9;C626.152100,549.166443 627.205688,540.989502 626.588745,532.868713 &#10;&#9;C626.132935,526.869568 622.960815,521.828613 619.788879,521.706970 &#10;&#9;C616.363281,521.575684 613.000549,526.585571 612.314514,532.862488 &#10;&#9;C611.043518,544.492004 612.654053,556.123596 612.294250,567.752441 &#10;&#9;C612.133850,572.939453 613.754883,577.542908 616.439575,581.890381 &#10;&#9;C623.085571,592.652527 634.027344,595.451050 645.352539,597.294128 &#10;&#9;C648.007446,597.726196 649.511353,595.590027 649.639160,591.985657 &#10;z"/>
<path fill="#c9641c" opacity="1.000000" stroke="none" d="&#10;M660.404541,223.460281 &#10;&#9;C657.666016,225.399597 655.255798,227.188812 652.738586,228.812317 &#10;&#9;C650.959839,229.959549 648.986633,230.324600 647.132446,228.927856 &#10;&#9;C645.215576,227.483841 645.260742,225.316757 645.940125,223.455338 &#10;&#9;C646.725220,221.304398 647.973938,219.276947 649.273499,217.367508 &#10;&#9;C654.498596,209.690552 659.821228,202.079956 665.453979,193.944885 &#10;&#9;C658.232727,191.168503 651.179993,191.524994 644.410095,190.420883 &#10;&#9;C635.243835,188.925949 626.025513,187.744598 616.820435,186.495712 &#10;&#9;C614.047668,186.119507 611.959473,185.051926 611.806091,181.980362 &#10;&#9;C611.641357,178.681793 613.820007,177.311768 616.659607,176.619003 &#10;&#9;C628.946655,173.621277 641.515076,172.389877 654.004395,170.662308 &#10;&#9;C654.991211,170.525818 655.999817,170.505234 656.970398,170.299347 &#10;&#9;C662.821960,169.058136 663.450073,167.619217 660.271362,162.655167 &#10;&#9;C655.781982,155.644333 651.217834,148.681091 646.765808,141.646774 &#10;&#9;C645.058899,138.949905 643.106384,135.887253 646.028381,133.048859 &#10;&#9;C649.130798,130.035263 652.262512,132.067551 654.970825,134.129425 &#10;&#9;C661.861450,139.375397 668.653442,144.750717 675.509155,150.042862 &#10;&#9;C677.063599,151.242813 678.403748,152.834076 681.205872,153.228516 &#10;&#9;C682.025391,146.355164 682.803528,139.520981 683.662598,132.696991 &#10;&#9;C684.905579,122.823372 686.190125,112.954880 687.493164,103.088974 &#10;&#9;C687.938293,99.718895 689.042908,96.589905 693.198303,96.952438 &#10;&#9;C697.180847,97.299881 697.868408,100.569832 698.306885,103.875351 &#10;&#9;C700.290222,118.827377 702.332336,133.771606 704.331482,148.721542 &#10;&#9;C704.558533,150.419708 704.851929,152.023621 707.024597,153.047287 &#10;&#9;C714.062988,148.683975 720.117981,142.687347 726.868225,137.616348 &#10;&#9;C728.465088,136.416779 729.967224,135.089386 731.582520,133.916672 &#10;&#9;C734.099060,132.089691 736.753601,130.468094 739.670837,133.092041 &#10;&#9;C742.607178,135.733200 741.290039,138.520782 739.599609,141.159241 &#10;&#9;C735.107788,148.169922 730.570801,155.151718 726.034485,162.133728 &#10;&#9;C721.983826,168.368301 722.281128,168.666550 729.576843,169.704437 &#10;&#9;C742.549011,171.549911 755.484253,173.670700 768.401978,175.870224 &#10;&#9;C771.297852,176.363312 774.526611,177.174759 774.276306,181.338013 &#10;&#9;C774.030823,185.421463 770.754578,185.834747 767.848267,186.277817 &#10;&#9;C754.065430,188.379135 740.261169,190.341125 726.461853,192.333832 &#10;&#9;C724.820374,192.570877 723.149170,192.660843 721.862183,194.316147 &#10;&#9;C725.133545,201.218948 730.328247,206.927673 734.359863,213.381592 &#10;&#9;C735.859436,215.782104 737.473877,218.111359 738.954407,220.523148 &#10;&#9;C740.447510,222.955399 741.174133,225.528595 738.831421,227.825134 &#10;&#9;C736.375244,230.232849 733.606384,229.692352 731.093994,227.922516 &#10;&#9;C724.833191,223.512024 718.676514,218.953842 712.435669,214.514526 &#10;&#9;C710.154236,212.891647 707.753052,211.436996 704.842651,209.537613 &#10;&#9;C702.950745,222.927353 701.154236,235.685104 699.342529,248.440689 &#10;&#9;C698.713440,252.870163 697.951599,257.283203 697.432922,261.725037 &#10;&#9;C697.120544,264.400269 696.108948,266.162201 693.201721,266.282593 &#10;&#9;C689.970764,266.416443 688.216553,264.706207 687.743286,261.653320 &#10;&#9;C686.345093,252.634933 684.949097,243.615448 683.665161,234.580353 &#10;&#9;C682.506470,226.426056 681.496765,218.250565 680.250671,208.787506 &#10;&#9;C673.138428,214.041382 666.912781,218.640350 660.404541,223.460281 &#10;M675.681763,201.068832 &#10;&#9;C677.085083,200.172546 678.494629,199.285706 679.890747,198.378342 &#10;&#9;C686.138855,194.317474 688.577515,195.722519 689.443298,203.173340 &#10;&#9;C690.179077,209.506470 690.289551,215.976517 692.217102,222.459641 &#10;&#9;C692.657654,221.842545 692.902405,221.605911 693.021362,221.317383 &#10;&#9;C695.730164,214.745621 694.836731,207.552780 696.554321,200.802231 &#10;&#9;C697.813843,195.852310 700.072937,194.706497 704.398254,197.283798 &#10;&#9;C708.272156,199.592163 711.985474,202.169983 716.163452,204.884781 &#10;&#9;C714.200745,200.087509 711.158813,196.686447 708.951355,192.776718 &#10;&#9;C706.734680,188.850693 707.572144,186.453064 711.998657,185.341019 &#10;&#9;C715.679688,184.416229 719.578796,184.387726 723.298950,183.582016 &#10;&#9;C727.092957,182.760284 731.396423,183.616104 736.087280,180.073196 &#10;&#9;C727.943970,179.041855 721.271912,178.132156 714.581909,177.382523 &#10;&#9;C712.027222,177.096252 709.452576,176.895386 708.161194,174.335144 &#10;&#9;C706.902039,171.838638 708.719421,169.956985 709.851440,167.933777 &#10;&#9;C711.306519,165.333206 714.420837,163.616272 714.415344,159.704178 &#10;&#9;C710.480530,160.517014 708.169800,163.390808 705.135559,164.941956 &#10;&#9;C699.926697,167.604797 697.401611,166.341293 696.684631,160.511261 &#10;&#9;C695.837524,153.623474 695.033081,146.722107 692.669373,139.475983 &#10;&#9;C691.117981,146.708862 689.960205,153.351181 689.276367,160.084137 &#10;&#9;C688.603455,166.708908 685.746399,168.029648 679.925842,164.727295 &#10;&#9;C677.604553,163.410339 675.890503,160.818497 672.511536,160.782242 &#10;&#9;C672.466797,164.440109 675.150085,166.358246 676.480225,168.898590 &#10;&#9;C678.960876,173.636337 677.658752,176.455032 672.340271,177.265488 &#10;&#9;C669.550293,177.690628 666.626709,177.658478 663.982971,178.512619 &#10;&#9;C660.991211,179.479233 657.338623,178.293594 654.868469,180.843430 &#10;&#9;C655.194641,182.169373 655.922363,182.462494 656.789978,182.583771 &#10;&#9;C661.882568,183.295547 666.971313,184.036301 672.067688,184.719650 &#10;&#9;C677.820801,185.491043 679.253113,188.184036 676.364258,193.059082 &#10;&#9;C674.038086,196.984497 671.604980,200.846573 668.536133,205.850815 &#10;&#9;C671.513977,203.882446 673.315369,202.691711 675.681763,201.068832 &#10;z"/>
<path fill="#c9641c" opacity="1.000000" stroke="none" d="&#10;M456.816223,531.255981 &#10;&#9;C452.222717,531.127563 450.466736,528.777954 450.719818,524.805054 &#10;&#9;C450.930511,521.497620 453.316803,520.174377 456.138062,520.105286 &#10;&#9;C459.363007,520.026245 461.463440,522.019653 461.845154,525.216248 &#10;&#9;C462.239868,528.521790 460.424896,530.491943 456.816223,531.255981 &#10;z"/>
<path fill="#c9641c" opacity="1.000000" stroke="none" d="&#10;M487.905090,607.994141 &#10;&#9;C485.848785,604.255310 486.655792,601.578430 490.005615,599.772400 &#10;&#9;C492.727661,598.304810 495.220795,598.959656 497.064178,601.314270 &#10;&#9;C499.094299,603.907410 498.869934,606.799255 496.504639,608.899292 &#10;&#9;C493.782410,611.316284 490.764465,610.999756 487.905090,607.994141 &#10;z"/>
<path fill="#c9641c" opacity="1.000000" stroke="none" d="&#10;M464.559082,496.270172 &#10;&#9;C461.637390,500.094849 458.518311,500.416382 455.485260,497.291351 &#10;&#9;C452.993652,494.724213 453.180664,491.721039 455.882294,489.394836 &#10;&#9;C458.772736,486.906067 461.728424,487.397308 464.172058,490.280457 &#10;&#9;C465.603455,491.969330 465.565521,493.934235 464.559082,496.270172 &#10;z"/>
<path fill="#c9641c" opacity="1.000000" stroke="none" d="&#10;M464.773956,564.157776 &#10;&#9;C465.790253,560.308289 468.151154,558.971191 471.587982,559.497803 &#10;&#9;C474.477905,559.940552 475.918488,561.976379 476.117798,564.650940 &#10;&#9;C476.311005,567.243774 474.697449,569.028198 472.365997,569.956299 &#10;&#9;C468.861877,571.351196 466.222198,569.425720 464.773956,564.157776 &#10;z"/>
<path fill="#c9641c" opacity="1.000000" stroke="none" d="&#10;M373.105286,105.106178 &#10;&#9;C374.805908,102.825012 376.203094,100.744514 377.837677,98.871124 &#10;&#9;C379.256042,97.245506 381.151123,96.401581 383.151611,97.843971 &#10;&#9;C384.916534,99.116516 385.601013,101.065842 384.875824,103.139748 &#10;&#9;C384.277954,104.849724 383.391846,106.496651 382.411438,108.029495 &#10;&#9;C367.810486,130.857147 347.055969,144.586700 320.532654,149.726120 &#10;&#9;C319.410583,149.943527 318.189667,150.127502 317.095795,149.913345 &#10;&#9;C314.887634,149.481033 312.910950,148.554398 312.744843,145.857025 &#10;&#9;C312.574615,143.092606 314.343872,142.198303 316.674896,141.610733 &#10;&#9;C326.392456,139.161331 335.719727,135.652145 344.548492,130.891800 &#10;&#9;C356.053497,124.688484 365.178802,115.815056 373.105286,105.106178 &#10;z"/>
<path fill="#c9641c" opacity="1.000000" stroke="none" d="&#10;M430.872437,474.199463 &#10;&#9;C430.686066,478.266144 428.630524,479.892609 425.043945,479.463684 &#10;&#9;C422.113037,479.113159 420.704193,477.145752 420.803436,474.349426 &#10;&#9;C420.898682,471.666138 422.734650,470.172943 425.254272,469.876984 &#10;&#9;C428.137909,469.538239 429.796753,471.305725 430.872437,474.199463 &#10;z"/>
</svg>